<?xml version="1.0" encoding="utf-8"?>
<!-- Generator: Adobe Illustrator 27.0.0, SVG Export Plug-In . SVG Version: 6.00 Build 0)  -->
<svg version="1.1" id="Layer_1" xmlns="http://www.w3.org/2000/svg" xmlns:xlink="http://www.w3.org/1999/xlink" x="0px" y="0px"
	 viewBox="0 0 512 512" style="enable-background:new 0 0 512 512;" xml:space="preserve">
<style type="text/css">
	.st0{fill:#5FE8FF;}
</style>
<path class="st0" d="M504.3,273.6c4.9-4.5,7.7-10.9,7.7-17.6s-2.8-13-7.7-17.6l-112-104c-7-6.5-17.2-8.2-25.9-4.4S352,142.5,352,152
	v56H160v-56c0-9.5-5.7-18.2-14.4-22s-18.9-2.1-25.9,4.4l-112,104C2.8,243,0,249.3,0,256c0,6.7,2.8,13,7.7,17.6l112,104
	c7,6.5,17.2,8.2,25.9,4.4s14.4-12.5,14.4-22v-56h192v56c0,9.5,5.7,18.2,14.4,22s18.9,2.1,25.9-4.4L504.3,273.6z"/>
</svg>
